<svg width="28" height="24" viewBox="0 0 28 24" fill="none" xmlns="http://www.w3.org/2000/svg">
<path d="M23.7145 2.92182L4.87347 2.72136C4.42036 2.71654 4.05057 3.03396 4.04597 3.43167L3.85455 19.9692C3.84995 20.3669 4.2123 20.6921 4.66541 20.6969L23.5064 20.8974C23.9595 20.9022 24.3293 20.5848 24.3339 20.1871L24.5254 3.64956C24.53 3.25185 24.1676 2.92664 23.7145 2.92182ZM22.7039 19.4506L17.9911 19.4005L18.055 13.8775L20.7173 13.9058L21.1481 11.198L18.0864 11.1654L18.1065 9.43304C18.1156 8.64661 18.3701 8.11448 19.6526 8.12812L21.2884 8.14553L21.3165 5.71882C21.0327 5.68209 20.0634 5.59762 18.9319 5.58558C16.5716 5.56047 14.9417 6.80832 14.9148 9.12942L14.8917 11.1292L12.2242 11.1008L12.1928 13.8129L14.8628 13.8413L14.7989 19.3665L5.50123 19.2676L5.676 4.16812L22.8787 4.35115L22.7039 19.4506Z" fill="black"/>
</svg>
