<svg width="91" height="40" viewBox="0 0 91 40" fill="none" xmlns="http://www.w3.org/2000/svg">
<path d="M12.1771 3.75001C13.8979 3.53751 15.7208 5.15001 16.2458 7.37501C16.7708 9.5875 15.8229 11.5625 14.1021 11.7875C12.3958 12.0125 10.5583 10.4 10.0188 8.175C9.47917 5.9625 10.4563 3.98751 12.1771 3.75001ZM22.6042 3.75001C24.3396 3.98751 25.3021 5.9625 24.7917 8.175C24.2375 10.4 22.4146 12.0125 20.6938 11.7875C18.9583 11.5625 18.0104 9.5875 18.55 7.37501C19.075 5.15001 20.8979 3.53751 22.6042 3.75001ZM4.37501 9.50001C6.03751 8.88751 8.29792 10 9.47917 11.9375C10.5875 13.9125 10.2083 15.9875 8.56042 16.6C6.91251 17.2125 4.66667 16.1125 3.51459 14.15C2.36251 12.1875 2.77084 10.1 4.37501 9.50001ZM30.625 9.50001C32.2292 10.1 32.6375 12.1875 31.4854 14.15C30.3333 16.1125 28.0875 17.2125 26.4396 16.6C24.7917 15.9875 24.4125 13.9125 25.5208 11.9375C26.7021 10 28.9625 8.88751 30.625 9.50001ZM28.1896 22.975C28.2479 24.15 27.1979 25.45 25.9438 25.9375C23.3333 26.9625 20.2417 24.8375 17.3396 24.8375C14.4375 24.8375 11.3167 27.05 8.75001 25.9375C7.29167 25.325 6.28542 23.7 6.47501 22.35C6.73751 20.4875 9.34792 19.4875 10.8938 18.125C12.95 16.3625 14.4083 13.05 17.3396 13.05C20.2563 13.05 21.8021 16.3125 23.7708 18.125C25.3896 19.65 28.0875 20.9375 28.1896 22.975Z" fill="#F8F8F8"/>
<g filter="url(#filter0_d_44_18)">
<path d="M45.425 6.05C45.425 5.54 45.355 5.165 45.215 4.925C45.075 4.675 44.795 4.55 44.375 4.55H44.225V4.1H46.025C46.385 4.1 46.66 4.16 46.85 4.28C47.04 4.4 47.175 4.6 47.255 4.88C47.335 5.15 47.375 5.54 47.375 6.05V13.325H52.55V14H45.425V6.05ZM54.6121 6.14C54.2521 6.14 53.9721 6.03 53.7721 5.81C53.5821 5.59 53.4871 5.32 53.4871 5C53.4871 4.74 53.5621 4.535 53.7121 4.385C53.8721 4.235 54.0721 4.16 54.3121 4.16C54.6721 4.16 54.9471 4.27 55.1371 4.49C55.3371 4.71 55.4371 4.98 55.4371 5.3C55.4371 5.56 55.3571 5.765 55.1971 5.915C55.0471 6.065 54.8521 6.14 54.6121 6.14ZM53.6371 8.9C53.6371 8.39 53.5671 8.015 53.4271 7.775C53.2871 7.525 53.0071 7.4 52.5871 7.4H52.4371V6.95H54.2371C54.5971 6.95 54.8721 7.01 55.0621 7.13C55.2521 7.25 55.3871 7.45 55.4671 7.73C55.5471 8 55.5871 8.39 55.5871 8.9V14H53.6371V8.9ZM57.6512 8.9C57.6512 8.39 57.5812 8.015 57.4412 7.775C57.3112 7.525 57.0362 7.4 56.6162 7.4H56.4662V6.95H57.9512C58.2912 6.95 58.5562 6.995 58.7462 7.085C58.9462 7.165 59.1012 7.305 59.2112 7.505C59.7212 7.035 60.4512 6.8 61.4012 6.8C62.3512 6.8 63.0612 7.025 63.5312 7.475C64.0112 7.915 64.2512 8.61 64.2512 9.56V14H62.3012V9.545C62.3012 8.855 62.1712 8.35 61.9112 8.03C61.6612 7.71 61.3162 7.55 60.8762 7.55C60.5662 7.55 60.2912 7.595 60.0512 7.685C59.8212 7.765 59.6362 7.875 59.4962 8.015L59.5412 8.225C59.5812 8.345 59.6012 8.54 59.6012 8.81V14H57.6512V8.9ZM69.2191 14.15C68.4891 14.15 67.8491 13.99 67.2991 13.67C66.7591 13.34 66.3441 12.9 66.0541 12.35C65.7641 11.79 65.6191 11.165 65.6191 10.475C65.6191 9.785 65.7641 9.165 66.0541 8.615C66.3441 8.055 66.7591 7.615 67.2991 7.295C67.8491 6.965 68.4891 6.8 69.2191 6.8C69.9491 6.8 70.5841 6.965 71.1241 7.295C71.6741 7.615 72.0941 8.055 72.3841 8.615C72.6741 9.165 72.8191 9.785 72.8191 10.475C72.8191 11.165 72.6741 11.79 72.3841 12.35C72.0941 12.9 71.6741 13.34 71.1241 13.67C70.5841 13.99 69.9491 14.15 69.2191 14.15ZM69.2191 13.475C69.7291 13.475 70.1191 13.2 70.3891 12.65C70.6591 12.1 70.7941 11.375 70.7941 10.475C70.7941 9.575 70.6591 8.85 70.3891 8.3C70.1191 7.75 69.7291 7.475 69.2191 7.475C68.7091 7.475 68.3191 7.75 68.0491 8.3C67.7791 8.85 67.6441 9.575 67.6441 10.475C67.6441 11.375 67.7791 12.1 68.0491 12.65C68.3191 13.2 68.7091 13.475 69.2191 13.475ZM73.8997 7.46C74.2297 7.24 74.5147 6.975 74.7547 6.665C75.0047 6.345 75.1297 5.985 75.1297 5.585L74.9047 5.63C74.6147 5.63 74.3897 5.55 74.2297 5.39C74.0697 5.22 73.9897 4.995 73.9897 4.715C73.9897 4.435 74.0697 4.215 74.2297 4.055C74.3897 3.885 74.6147 3.8 74.9047 3.8C75.2147 3.8 75.4547 3.915 75.6247 4.145C75.8047 4.375 75.8947 4.65 75.8947 4.97C75.8947 5.56 75.7597 6.08 75.4897 6.53C75.2297 6.98 74.7897 7.41 74.1697 7.82L73.8997 7.46ZM79.6469 14.15C78.4769 14.15 77.6719 13.945 77.2319 13.535C77.0719 13.385 76.9719 13.175 76.9319 12.905C76.8919 12.625 76.8719 12.24 76.8719 11.75H77.3969C77.4869 12.27 77.6919 12.69 78.0119 13.01C78.3319 13.32 78.7769 13.475 79.3469 13.475C80.3469 13.475 80.8469 13.135 80.8469 12.455C80.8469 12.195 80.7369 11.98 80.5169 11.81C80.3069 11.64 79.9669 11.45 79.4969 11.24L78.7169 10.91C78.0769 10.63 77.5969 10.325 77.2769 9.995C76.9569 9.665 76.7969 9.265 76.7969 8.795C76.7969 8.165 77.0569 7.675 77.5769 7.325C78.1069 6.975 78.7969 6.8 79.6469 6.8C80.8169 6.8 81.6219 7.005 82.0619 7.415C82.2219 7.565 82.3219 7.775 82.3619 8.045C82.4019 8.315 82.4219 8.7 82.4219 9.2H81.8969C81.8069 8.68 81.6019 8.265 81.2819 7.955C80.9619 7.635 80.5169 7.475 79.9469 7.475C79.5169 7.475 79.1969 7.57 78.9869 7.76C78.7769 7.94 78.6719 8.185 78.6719 8.495C78.6719 8.745 78.7569 8.955 78.9269 9.125C79.1069 9.285 79.3769 9.445 79.7369 9.605L80.6369 9.98C81.3769 10.29 81.9069 10.605 82.2269 10.925C82.5569 11.235 82.7219 11.645 82.7219 12.155C82.7219 12.795 82.4369 13.29 81.8669 13.64C81.3069 13.98 80.5669 14.15 79.6469 14.15ZM48.095 31.255C47.535 31.255 46.995 31.18 46.475 31.03C45.955 30.89 45.53 30.685 45.2 30.415C44.87 30.135 44.705 29.815 44.705 29.455V27.7H45.125C45.275 28.72 45.59 29.455 46.07 29.905C46.55 30.355 47.22 30.58 48.08 30.58C48.66 30.58 49.12 30.455 49.46 30.205C49.8 29.955 49.97 29.595 49.97 29.125C49.97 28.725 49.845 28.385 49.595 28.105C49.345 27.825 48.955 27.52 48.425 27.19L46.58 26.08C45.91 25.69 45.43 25.285 45.14 24.865C44.86 24.445 44.72 23.955 44.72 23.395C44.72 22.605 45.02 21.98 45.62 21.52C46.23 21.06 47.05 20.83 48.08 20.83C48.64 20.83 49.18 20.905 49.7 21.055C50.22 21.195 50.645 21.405 50.975 21.685C51.305 21.955 51.47 22.27 51.47 22.63V24.385H51.05C50.88 23.365 50.565 22.63 50.105 22.18C49.645 21.73 49.025 21.505 48.245 21.505C47.705 21.505 47.275 21.635 46.955 21.895C46.645 22.155 46.49 22.51 46.49 22.96C46.49 23.35 46.61 23.675 46.85 23.935C47.1 24.185 47.5 24.47 48.05 24.79L49.895 25.885C50.595 26.295 51.095 26.695 51.395 27.085C51.705 27.465 51.86 27.925 51.86 28.465C51.86 29.335 51.53 30.02 50.87 30.52C50.22 31.01 49.295 31.255 48.095 31.255ZM55.7982 31.15C55.1082 31.15 54.5732 30.965 54.1932 30.595C53.8132 30.215 53.6232 29.67 53.6232 28.96V24.625H52.7232V23.95H53.6232V22.6L54.3732 21.7H55.5732V23.95H57.2232V24.625H55.5732V29.05C55.5732 29.59 55.6382 29.965 55.7682 30.175C55.8982 30.375 56.0932 30.475 56.3532 30.475C56.6332 30.475 56.9132 30.41 57.1932 30.28C57.3032 30.22 57.4182 30.15 57.5382 30.07L57.7482 30.49C57.6182 30.6 57.4632 30.71 57.2832 30.82C56.8632 31.04 56.3682 31.15 55.7982 31.15ZM61.5359 31.15C60.5859 31.15 59.8859 30.93 59.4359 30.49C58.9859 30.05 58.7609 29.35 58.7609 28.39V25.9C58.7609 25.39 58.6909 25.015 58.5509 24.775C58.4109 24.525 58.1309 24.4 57.7109 24.4H57.5609V23.95H59.3609C59.7209 23.95 59.9959 24.01 60.1859 24.13C60.3759 24.25 60.5109 24.45 60.5909 24.73C60.6709 25 60.7109 25.39 60.7109 25.9V28.405C60.7109 29.155 60.8159 29.69 61.0259 30.01C61.2359 30.32 61.5559 30.475 61.9859 30.475C62.3559 30.475 62.6909 30.315 62.9909 29.995C63.1009 29.885 63.2159 29.72 63.3359 29.5V23.95H65.2859V31H64.0109L63.4859 30.325H63.4109C63.2709 30.475 63.1059 30.615 62.9159 30.745C62.5359 31.015 62.0759 31.15 61.5359 31.15ZM69.8974 31.15C68.8874 31.15 68.1074 30.81 67.5574 30.13C67.0174 29.44 66.7474 28.555 66.7474 27.475C66.7474 26.395 67.0224 25.515 67.5724 24.835C68.1324 24.145 68.9324 23.8 69.9724 23.8C70.3324 23.8 70.7174 23.875 71.1274 24.025C71.2774 24.095 71.4174 24.17 71.5474 24.25V23.05C71.5474 22.54 71.4774 22.165 71.3374 21.925C71.1974 21.675 70.9174 21.55 70.4974 21.55H70.3474V21.1H72.1474C72.5074 21.1 72.7824 21.16 72.9724 21.28C73.1624 21.4 73.2974 21.6 73.3774 21.88C73.4574 22.15 73.4974 22.54 73.4974 23.05V31H72.2224L71.6974 30.325H71.6224C71.5324 30.465 71.3924 30.605 71.2024 30.745C70.8624 31.015 70.4274 31.15 69.8974 31.15ZM70.1974 30.475C70.5674 30.475 70.9024 30.315 71.2024 29.995C71.3124 29.885 71.4274 29.72 71.5474 29.5V24.925C71.4474 24.845 71.3274 24.77 71.1874 24.7C70.8674 24.55 70.5624 24.475 70.2724 24.475C69.2724 24.475 68.7724 25.475 68.7724 27.475C68.7724 28.405 68.8824 29.14 69.1024 29.68C69.3324 30.21 69.6974 30.475 70.1974 30.475ZM76.5555 23.14C76.1955 23.14 75.9155 23.03 75.7155 22.81C75.5255 22.59 75.4305 22.32 75.4305 22C75.4305 21.74 75.5055 21.535 75.6555 21.385C75.8155 21.235 76.0155 21.16 76.2555 21.16C76.6155 21.16 76.8905 21.27 77.0805 21.49C77.2805 21.71 77.3805 21.98 77.3805 22.3C77.3805 22.56 77.3005 22.765 77.1405 22.915C76.9905 23.065 76.7955 23.14 76.5555 23.14ZM75.5805 25.9C75.5805 25.39 75.5105 25.015 75.3705 24.775C75.2305 24.525 74.9505 24.4 74.5305 24.4H74.3805V23.95H76.1805C76.5405 23.95 76.8155 24.01 77.0055 24.13C77.1955 24.25 77.3305 24.45 77.4105 24.73C77.4905 25 77.5305 25.39 77.5305 25.9V31H75.5805V25.9ZM82.5345 31.15C81.8045 31.15 81.1645 30.99 80.6145 30.67C80.0745 30.34 79.6595 29.9 79.3695 29.35C79.0795 28.79 78.9345 28.165 78.9345 27.475C78.9345 26.785 79.0795 26.165 79.3695 25.615C79.6595 25.055 80.0745 24.615 80.6145 24.295C81.1645 23.965 81.8045 23.8 82.5345 23.8C83.2645 23.8 83.8995 23.965 84.4395 24.295C84.9895 24.615 85.4095 25.055 85.6995 25.615C85.9895 26.165 86.1345 26.785 86.1345 27.475C86.1345 28.165 85.9895 28.79 85.6995 29.35C85.4095 29.9 84.9895 30.34 84.4395 30.67C83.8995 30.99 83.2645 31.15 82.5345 31.15ZM82.5345 30.475C83.0445 30.475 83.4345 30.2 83.7045 29.65C83.9745 29.1 84.1095 28.375 84.1095 27.475C84.1095 26.575 83.9745 25.85 83.7045 25.3C83.4345 24.75 83.0445 24.475 82.5345 24.475C82.0245 24.475 81.6345 24.75 81.3645 25.3C81.0945 25.85 80.9595 26.575 80.9595 27.475C80.9595 28.375 81.0945 29.1 81.3645 29.65C81.6345 30.2 82.0245 30.475 82.5345 30.475Z" fill="white"/>
</g>
<defs>
<filter id="filter0_d_44_18" x="40.225" y="3.79999" width="49.9095" height="35.455" filterUnits="userSpaceOnUse" color-interpolation-filters="sRGB">
<feFlood flood-opacity="0" result="BackgroundImageFix"/>
<feColorMatrix in="SourceAlpha" type="matrix" values="0 0 0 0 0 0 0 0 0 0 0 0 0 0 0 0 0 0 127 0" result="hardAlpha"/>
<feOffset dy="4"/>
<feGaussianBlur stdDeviation="2"/>
<feComposite in2="hardAlpha" operator="out"/>
<feColorMatrix type="matrix" values="0 0 0 0 0 0 0 0 0 0 0 0 0 0 0 0 0 0 0.25 0"/>
<feBlend mode="normal" in2="BackgroundImageFix" result="effect1_dropShadow_44_18"/>
<feBlend mode="normal" in="SourceGraphic" in2="effect1_dropShadow_44_18" result="shape"/>
</filter>
</defs>
</svg>
