<svg width="35" height="35" viewBox="0 0 35 35" fill="none" xmlns="http://www.w3.org/2000/svg">
<path d="M17.5001 3.01875C15.1189 3.02039 12.7749 3.60919 10.6756 4.73299C8.57628 5.8568 6.7865 7.48093 5.46473 9.46156C4.14296 11.4422 3.32999 13.7182 3.09781 16.088C2.86564 18.4578 3.22143 20.8483 4.13367 23.0478C5.04591 25.2473 6.48645 27.188 8.32772 28.6978C10.169 30.2077 12.3542 31.2402 14.6897 31.704C17.0253 32.1677 19.4392 32.0484 21.7177 31.3565C23.9961 30.6646 26.0688 29.4216 27.7521 27.7375C27.7854 27.7072 27.8148 27.6729 27.8396 27.6354C30.5085 24.9386 32.0004 21.2942 31.9886 17.5C31.9832 13.6597 30.4548 9.9784 27.7386 7.2636C25.0224 4.5488 21.3403 3.02222 17.5001 3.01875ZM17.5001 30.5229C14.0467 30.5191 10.7357 29.146 8.29314 26.7048C5.85055 24.2635 4.47564 20.9534 4.46985 17.5C4.46099 14.2949 5.6464 11.2014 7.79485 8.82292L26.1844 27.2125C23.7957 29.3471 20.7036 30.5258 17.5001 30.5229ZM27.2271 26.1771L8.81568 7.7875C11.2968 5.56661 14.5341 4.38001 17.8628 4.47139C21.1914 4.56277 24.3588 5.92519 26.7143 8.27886C29.0698 10.6325 30.4348 13.7988 30.5288 17.1274C30.6228 20.456 29.4388 23.6942 27.2198 26.1771H27.2271Z" fill="#FFD233"/>
</svg>
