<svg width="40" height="40" viewBox="0 0 40 40" fill="none" xmlns="http://www.w3.org/2000/svg">
<path d="M19.9999 33.6C12.4799 33.6 6.3999 27.52 6.3999 20C6.3999 12.48 12.4799 6.39999 19.9999 6.39999C27.5199 6.39999 33.5999 12.48 33.5999 20C33.5999 27.52 27.5199 33.6 19.9999 33.6ZM19.9999 7.99999C13.3599 7.99999 7.9999 13.36 7.9999 20C7.9999 26.64 13.3599 32 19.9999 32C26.6399 32 31.9999 26.64 31.9999 20C31.9999 13.36 26.6399 7.99999 19.9999 7.99999Z" fill="#4ECB71"/>
<path d="M18.3999 25.92L11.4399 18.96L12.5599 17.84L18.3999 23.68L27.4399 14.64L28.5599 15.76L18.3999 25.92Z" fill="#4ECB71"/>
</svg>
