<svg width="20" height="20" viewBox="0 0 20 20" fill="none" xmlns="http://www.w3.org/2000/svg">
<path d="M17 2.87305C16.0832 1.98517 14.9912 1.28119 13.7876 0.802182C12.5841 0.323171 11.2931 0.0787125 9.99 0.0830649C4.53 0.0830649 0.0800002 4.34953 0.0800002 9.58435C0.0800002 11.2622 0.54 12.8921 1.4 14.3302L0 19.2582L5.25 17.9351C6.7 18.6925 8.33 19.0952 9.99 19.0952C15.45 19.0952 19.9 14.8287 19.9 9.59393C19.9 7.05323 18.87 4.66592 17 2.87305ZM9.99 17.4845C8.51 17.4845 7.06 17.101 5.79 16.3819L5.49 16.2094L2.37 16.9955L3.2 14.0809L3 13.7837C2.17775 12.5248 1.74114 11.0697 1.74 9.58435C1.74 5.23159 5.44 1.68419 9.98 1.68419C12.18 1.68419 14.25 2.50872 15.8 4.00438C16.5675 4.73684 17.1757 5.60806 17.5894 6.56755C18.0031 7.52703 18.214 8.55571 18.21 9.59393C18.23 13.9467 14.53 17.4845 9.99 17.4845ZM14.51 11.5786C14.26 11.4635 13.04 10.8883 12.82 10.802C12.59 10.7253 12.43 10.6869 12.26 10.917C12.09 11.1567 11.62 11.6936 11.48 11.847C11.34 12.01 11.19 12.0292 10.94 11.9045C10.69 11.7895 9.89 11.5306 8.95 10.7253C8.21 10.0925 7.72 9.3159 7.57 9.07621C7.43 8.83652 7.55 8.71188 7.68 8.58724C7.79 8.48178 7.93 8.3092 8.05 8.17497C8.17 8.04075 8.22 7.93528 8.3 7.78188C8.38 7.61889 8.34 7.48467 8.28 7.36962C8.22 7.25457 7.72 6.08488 7.52 5.60551C7.32 5.1453 7.11 5.20283 6.96 5.19324H6.48C6.31 5.19324 6.05 5.25077 5.82 5.49045C5.6 5.73014 4.96 6.3054 4.96 7.47508C4.96 8.64477 5.85 9.7761 5.97 9.9295C6.09 10.0925 7.72 12.4894 10.2 13.5153C10.79 13.7645 11.25 13.9083 11.61 14.0138C12.2 14.196 12.74 14.1672 13.17 14.1097C13.65 14.0426 14.64 13.5344 14.84 12.9783C15.05 12.4223 15.05 11.9525 14.98 11.847C14.91 11.7416 14.76 11.6936 14.51 11.5786Z" fill="black"/>
</svg>
